Coordinates
nRows=125
nColumns=2
inDegrees=yes
endheader
time	ankle_angle_r	
2.3619	 -5.176286	
2.43347	 -5.231778	
2.50504	 -5.124759	
2.57661	 -5.172729	
2.64819	 -5.154860	
2.71976	 -5.215687	
2.79133	 -5.203247	
2.8629	 -5.191223	
2.93448	 -5.218506	
3.00605	 -5.180031	
3.07762	 -5.157471	
3.14919	 -5.237831	
3.22077	 -5.249023	
3.29234	 -5.290317	
3.36391	 -5.273664	
3.43548	 -5.228866	
3.50706	 -5.315104	
3.57863	 -5.304744	
3.6502	 -5.253237	
3.72177	 -5.289069	
3.79335	 -5.273602	
3.86492	 -5.285688	
3.93649	 -5.261733	
4.00806	 -5.249023	
4.07964	 -5.249023	
4.15121	 -5.240744	
4.22278	 -5.202362	
4.29435	 -5.180124	
4.36593	 -5.203300	
4.4375	 -5.241212	
4.50907	 -5.203247	
4.58065	 -5.257250	
4.65222	 -5.135388	
4.72379	 -5.135596	
4.79536	 -5.135804	
4.86694	 -5.004883	
4.93851	 -5.050659	
5.01008	 -5.050659	
5.08165	 -5.024249	
5.15323	 -5.050659	
5.2248	 -5.096436	
5.29637	 -5.136856	
5.36794	 -5.070662	
5.43952	 -5.131489	
5.51109	 -5.146539	
5.58266	 -5.218506	
5.65423	 -5.210683	
5.72581	 -5.214802	
5.79738	 -5.267777	
5.86895	 -5.249023	
5.94052	 -5.270441	
6.0121	 -5.218506	
6.08367	 -5.292137	
6.15524	 -5.272175	
6.22681	 -5.187988	
6.29839	 -5.100514	
6.36996	 -5.115356	
6.44153	 -5.143835	
6.5131	 -5.052074	
6.58468	 -5.110487	
6.65625	 -5.156472	
6.72782	 -5.081177	
6.7994	 -5.079428	
6.87097	 -5.081177	
6.94254	 -5.081177	
7.01411	 -5.111776	
7.08569	 -5.187988	
7.15726	 -5.126953	
7.22883	 -5.080512	
7.3004	 -5.111694	
7.37198	 -5.189069	
7.44355	 -5.170151	
7.51512	 -5.220003	
7.58669	 -5.279541	
7.65827	 -5.290973	
7.72984	 -5.249023	
7.80141	 -5.233765	
7.87298	 -5.312596	
7.94456	 -5.236510	
8.01613	 -5.264282	
8.0877	 -5.221667	
8.15927	 -5.321948	
8.23085	 -5.249023	
8.30242	 -5.218506	
8.37399	 -5.290806	
8.44556	 -5.286397	
8.51714	 -5.249023	
8.58871	 -5.203247	
8.66028	 -5.167904	
8.73185	 -5.238956	
8.80343	 -5.101677	
8.875	 -5.249023	
8.94657	 -5.075519	
9.01815	 -5.117560	
9.08972	 -5.178803	
9.16129	 -5.074895	
9.23286	 -5.098715	
9.30444	 -5.150773	
9.37601	 -5.157471	
9.44758	 -5.126953	
9.51915	 -5.050659	
9.59073	 -5.165200	
9.6623	 -5.126953	
9.73387	 -5.286854	
9.80544	 -5.247974	
9.87702	 -5.301697	
9.94859	 -5.301489	
10.0202	 -5.294800	
10.0917	 -5.407884	
10.1633	 -5.377159	
10.2349	 -5.386353	
10.3065	 -5.325317	
10.378	 -5.274100	
10.4496	 -5.325317	
10.5212	 -5.289775	
10.5927	 -5.299616	
10.6643	 -5.249023	
10.7359	 -5.288342	
10.8075	 -5.303185	
10.879	 -5.229780	
10.9506	 -5.279541	
11.0222	 -5.260714	
11.0937	 -5.245663	
11.1653	 -5.206399	
11.2369	 -5.145156	
